#!OML:ASF F:\VICON\USERDATA\INSTALL\Justin_Nancy\Justin_Nancy.ASF
:FULLY-SPECIFIED
:DEGREES
191
root 7.07751 17.7312 -3.75255 0.38045 -39.2236 2.07107
lowerback 6.10091 0.749277 -1.64756
upperback 0.395943 0.936051 1.83144
thorax -3.07046 0.496976 2.736
lowerneck -19.6802 -4.36187 -7.8002
upperneck 28.0993 -4.85598 3.33354
head 12.966 -2.59266 1.77605
rclavicle -3.13086e-015 1.03368e-014
rhumerus -30.2491 -13.2781 -80.4895
rradius 31.6296
rwrist 5.36163
rhand -12.9607 13.1379
rfingers 7.12502
rthumb 13.1311 -16.4286
lclavicle -3.13086e-015 1.03368e-014
lhumerus -32.3366 16.4535 80.4132
lradius 27.9502
lwrist -8.16331
lhand -18.5196 24.4449
lfingers 7.12502
lthumb 7.76886 54.2822
rfemur -5.59382 4.2511 30.3298
rtibia 13.8857
rfoot -6.96499 -4.22587
rtoes 22.3411
lfemur -19.3515 4.94795 -18.4715
ltibia 64.3019
lfoot -0.424107 7.15298
ltoes -1.57717
192
root 7.03446 17.7241 -3.65989 0.353653 -39.8354 2.03906
lowerback 6.26849 0.820358 -1.52965
upperback 0.344519 1.03655 1.78652
thorax -3.22063 0.547192 2.61214
lowerneck -19.3871 -4.31481 -7.96068
upperneck 27.8926 -4.82917 3.57109
head 12.8305 -2.56822 1.90283
rclavicle -5.46658e-014 -7.95139e-016
rhumerus -30.0232 -13.2574 -80.716
rradius 31.8449
rwrist 5.13123
rhand -13.2117 12.6891
rfingers 7.12502
rthumb 12.8891 -16.8928
lclavicle -5.46658e-014 -7.95139e-016
lhumerus -32.5257 16.604 80.2728
lradius 27.8081
lwrist -8.06131
lhand -17.7637 24.9966
lfingers 7.12502
lthumb 8.49836 54.8056
rfemur -5.23608 4.31326 30.3048
rtibia 14.0911
rfoot -7.22558 -3.77315
rtoes 21.3617
lfemur -20.0024 4.50147 -18.3292
ltibia 64.2021
lfoot -1.57513 7.50462
ltoes -1.92413
193
root 6.99041 17.7104 -3.56985 0.476149 -40.3146 1.9445
lowerback 6.26139 0.931863 -1.29555
upperback 0.270147 1.20079 1.72926
thorax -3.29679 0.626564 2.40547
lowerneck -18.5576 -4.30853 -8.47419
upperneck 27.4396 -4.86409 4.05754
head 12.5094 -2.58008 2.17854
rclavicle 5.78463e-014 0
rhumerus -29.8611 -13.4327 -80.8133
rradius 32.1206
rwrist 4.95909
rhand -13.6283 11.7091
rfingers 7.12502
rthumb 12.4875 -17.8978
lclavicle 5.78463e-014 0
lhumerus -32.6464 16.4735 80.2742
lradius 27.6061
lwrist -7.97862
lhand -17.1099 25.5626
lfingers 7.12502
lthumb 9.12928 55.345
rfemur -5.15921 4.56365 30.347
rtibia 14.604
rfoot -7.56192 -3.60509
rtoes 19.5616
lfemur -20.8332 4.02992 -18.1019
ltibia 63.9723
lfoot -2.37106 7.33677
ltoes -3.74775
194
root 6.94475 17.6901 -3.47008 0.552391 -41.0423 1.85088
lowerback 6.2298 1.20846 -1.0483
upperback 0.121837 1.58919 1.73436
thorax -3.44608 0.818534 2.23487
lowerneck -14.1974 -3.88531 -10.1676
upperneck 25.0986 -4.51167 5.37111
head 10.7864 -2.46136 3.03336
rclavicle 4.34344e-014 3.97569e-015
rhumerus -30.0901 -13.3583 -80.6938
rradius 32.6132
rwrist 4.58332
rhand -13.5689 11.6784
rfingers 7.12502
rthumb 12.5448 -17.925
lclavicle 4.34344e-014 3.97569e-015
lhumerus -33.0976 16.38 80.3883
lradius 27.4954
lwrist -8.29007
lhand -17.3076 24.9488
lfingers 7.12502
lthumb 8.93852 54.7394
rfemur -5.05428 4.92599 30.3957
rtibia 15.2403
rfoot -8.20516 -3.46128
rtoes 19.0447
lfemur -21.5596 3.87561 -17.8725
ltibia 63.6261
lfoot -3.26476 7.14962
ltoes -4.73322
195
root 6.89384 17.6817 -3.34663 0.264795 -41.692 2.27194
lowerback 5.97644 1.34786 -1.03075
upperback 0.0619514 1.77343 1.58815
thorax -3.36925 0.909075 2.06119
lowerneck -13.9956 -3.92665 -10.4834
upperneck 25.1665 -4.55338 5.49812
head 10.7885 -2.50148 3.13008
rclavicle 4.52235e-015 -8.74653e-015
rhumerus -30.3067 -12.6941 -80.8924
rradius 33.2909
rwrist 3.67426
rhand -13.6655 11.2726
rfingers 7.12502
rthumb 12.4516 -18.3365
lclavicle 4.52235e-015 -8.74653e-015
lhumerus -33.4877 16.3536 80.3567
lradius 27.3245
lwrist -8.64863
lhand -18.1677 23.6742
lfingers 7.12502
lthumb 8.10847 53.4986
rfemur -4.81845 4.80051 29.9049
rtibia 15.8612
rfoot -9.17065 -2.96614
rtoes 19.6247
lfemur -21.9869 3.53956 -18.1822
ltibia 63.0691
lfoot -4.29511 7.54698
ltoes -3.04568
196
root 6.84295 17.6681 -3.23132 0.207039 -42.6933 2.1519
lowerback 5.90469 1.467 -0.715235
upperback 0.181509 1.94947 1.51277
thorax -3.19989 0.988956 1.79348
lowerneck -15.2823 -4.19426 -10.0147
upperneck 25.8865 -4.81826 5.0416
head 11.3137 -2.62257 2.83955
rclavicle -4.06018e-014 -2.38542e-015
rhumerus -30.014 -12.2266 -81.3174
rradius 33.6331
rwrist 3.3857
rhand -13.9182 10.7834
rfingers 7.12502
rthumb 12.208 -18.8404
lclavicle -4.06018e-014 -2.38542e-015
lhumerus -33.4962 16.5242 80.1027
lradius 27.0988
lwrist -8.95144
lhand -18.7228 23.3624
lfingers 7.12502
lthumb 7.57272 53.2068
rfemur -4.46417 5.41782 29.9634
rtibia 16.4359
rfoot -10.1704 -2.79353
rtoes 21.8312
lfemur -22.3756 3.58823 -17.9302
ltibia 62.4952
lfoot -5.12392 7.81939
ltoes -3.12964
197
root 6.80421 17.6408 -3.14816 0.700854 -43.3165 1.3666
lowerback 6.21903 1.46138 -0.068082
upperback 0.165741 1.98985 1.60151
thorax -3.37505 0.999473 1.51028
lowerneck -16.53 -4.44407 -9.36061
upperneck 26.5222 -5.09293 4.48135
head 11.7961 -2.74063 2.46878
rclavicle -3.12092e-014 1.59028e-014
rhumerus -29.6605 -11.7413 -81.718
rradius 33.8656
rwrist 3.0941
rhand -13.8757 10.9825
rfingers 7.12502
rthumb 12.249 -18.6388
lclavicle -3.12092e-014 1.59028e-014
lhumerus -33.5459 16.8668 79.8195
lradius 26.9662
lwrist -9.02689
lhand -18.5634 24.0937
lfingers 7.12502
lthumb 7.72654 53.9325
rfemur -4.31064 5.93766 30.5795
rtibia 16.9018
rfoot -10.9431 -2.88009
rtoes 23.9637
lfemur -23.1939 3.34931 -17.098
ltibia 61.9318
lfoot -5.6967 7.80623
ltoes -5.37169
198
root 6.76461 17.6167 -3.06633 0.903845 -43.687 1.02425
lowerback 6.56216 1.37789 0.194455
upperback 0.0859063 1.90305 1.63252
thorax -3.64026 0.952367 1.39393
lowerneck -16.5556 -4.36329 -9.0178
upperneck 26.3753 -5.00934 4.27465
head 11.7198 -2.69228 2.345
rclavicle -3.52843e-015 -2.54444e-014
rhumerus -29.4825 -11.2708 -82.0858
rradius 34.152
rwrist 2.90135
rhand -13.7797 11.5364
rfingers 7.12502
rthumb 12.3415 -18.0793
lclavicle -3.52843e-015 -2.54444e-014
lhumerus -33.7313 17.0584 79.6319
lradius 26.7534
lwrist -8.90087
lhand -18.0112 24.5871
lfingers 7.12502
lthumb 8.25954 54.4056
rfemur -4.09567 6.14477 30.8077
rtibia 17.2436
rfoot -11.0012 -2.74169
rtoes 20.6247
lfemur -24.0181 2.8671 -16.643
ltibia 61.2531
lfoot -6.40617 8.01942
ltoes -5.6057
199
root 6.71659 17.6093 -2.9594 0.949639 -44.0405 1.04093
lowerback 6.52504 1.29678 0.296141
upperback 0.0785212 1.80301 1.65798
thorax -3.6223 0.901005 1.3736
lowerneck -13.3109 -3.80445 -10.2263
upperneck 23.9208 -4.41864 5.30082
head 10.1749 -2.42762 3.02304
rclavicle 5.49143e-014 4.77083e-015
rhumerus -29.2507 -10.8408 -82.2638
rradius 34.3925
rwrist 2.99163
rhand -14.0351 11.633
rfingers 7.12502
rthumb 12.0953 -17.9974
lclavicle 5.49143e-014 4.77083e-015
lhumerus -33.8223 17.6577 79.4673
lradius 26.4505
lwrist -9.61087
lhand -16.8308 25.5162
lfingers 7.12502
lthumb 9.39861 55.2866
rfemur -3.8675 6.20764 30.681
rtibia 17.5814
rfoot -11.2077 -2.56756
rtoes 17.5702
lfemur -24.7488 2.29025 -16.5664
ltibia 60.3858
lfoot -6.77714 8.04261
ltoes -6.08861
200
root 6.66796 17.6039 -2.84881 1.18325 -44.222 0.937616
lowerback 6.35238 1.19589 0.568497
upperback 0.0540368 1.68809 1.70335
thorax -3.54152 0.839506 1.28193
lowerneck -13.618 -3.86408 -10.6041
upperneck 24.07 -4.41632 5.4348
head 10.3023 -2.44362 3.13369
rclavicle -5.40694e-014 4.77083e-015
rhumerus -28.9741 -10.3348 -82.3953
rradius 34.6257
rwrist 2.81592
rhand -14.5798 11.0793
rfingers 7.12502
rthumb 11.57 -18.5813
lclavicle -5.40694e-014 4.77083e-015
lhumerus -33.8363 18.3075 79.2784
lradius 26.1442
lwrist -10.7351
lhand -14.9198 26.4065
lfingers 7.12502
lthumb 11.2421 56.0852
rfemur -3.75587 6.13776 30.6483
rtibia 17.8662
rfoot -11.7473 -2.47983
rtoes 17.5429
lfemur -25.5698 1.75329 -16.3776
ltibia 59.3696
lfoot -7.08458 7.73579
ltoes -8.0146
201
root 6.61324 17.5911 -2.75936 1.38505 -45.118 0.753376
lowerback 6.46874 1.33343 0.521813
upperback 0.00957512 1.87416 1.81438
thorax -3.6619 0.933471 1.40228
lowerneck -13.8149 -3.81998 -10.5711
upperneck 24.0953 -4.28754 5.23466
head 10.3334 -2.40155 3.07155
rclavicle -7.30534e-015 -1.59028e-014
rhumerus -28.7099 -9.79168 -82.5988
rradius 34.8218
rwrist 2.74036
rhand -14.4057 11.6246
rfingers 7.12502
rthumb 11.7379 -18.0265
lclavicle -7.30534e-015 -1.59028e-014
lhumerus -34.1343 18.9869 79.0402
lradius 26.1707
lwrist -11.3505
lhand -14.1784 26.7617
lfingers 7.12502
lthumb 11.9571 56.4002
rfemur -3.46485 6.51156 30.7217
rtibia 18.0129
rfoot -11.9024 -2.0446
rtoes 16.6816
lfemur -26.0395 2.15049 -16.0987
ltibia 58.24
lfoot -7.81141 7.76188
ltoes -8.53148
